<svg width="25" height="26" viewBox="0 0 25 26" fill="none" xmlns="http://www.w3.org/2000/svg">
<path d="M12.5 25.0896C6.30859 25.0896 0.0195312 23.7615 0.0195312 21.2224C0.0195312 18.9568 4.86328 18.0193 6.93359 17.7263H7.01172C7.30469 17.7263 7.55859 17.9412 7.59766 18.2341C7.61719 18.3904 7.57812 18.5466 7.48047 18.6638C7.38281 18.781 7.24609 18.8787 7.08984 18.8982C2.77344 19.5232 1.17188 20.656 1.17188 21.2419C1.17188 22.3357 5.58594 23.9373 12.4805 23.9373C19.375 23.9373 23.7891 22.3357 23.7891 21.2419C23.7891 20.656 22.168 19.5232 17.8125 18.8982C17.6562 18.8787 17.5195 18.8005 17.4219 18.6638C17.3242 18.5466 17.2852 18.3904 17.3047 18.2341C17.3438 17.9412 17.5977 17.7263 17.8906 17.7263H17.9688C20.0586 18.0193 24.9414 18.9568 24.9414 21.2224C24.9609 23.7419 18.6914 25.0896 12.5 25.0896ZM12.0898 20.949C11.7969 20.6755 5.03906 14.2888 5.03906 8.01929C5.03906 3.91773 8.37891 0.577881 12.4805 0.577881C16.582 0.577881 19.9219 3.91773 19.9219 8.01929C19.9219 14.113 13.1641 20.656 12.8711 20.9294L12.4805 21.3201L12.0898 20.949ZM12.5 1.74976C9.04297 1.74976 6.23047 4.56226 6.23047 8.01929C6.23047 12.9216 11.0156 18.1755 12.5 19.6794C14.0039 18.1365 18.7891 12.7849 18.7891 8.01929C18.7695 4.58179 15.957 1.74976 12.5 1.74976ZM12.5 11.3396C10.5469 11.3396 8.96484 9.75757 8.96484 7.80444C8.96484 5.85132 10.5469 4.26929 12.5 4.26929C14.4531 4.26929 16.0352 5.85132 16.0352 7.80444C16.0352 9.75757 14.4531 11.3396 12.5 11.3396ZM12.5 5.44116C11.1914 5.44116 10.1367 6.49585 10.1367 7.80444C10.1367 9.11304 11.1914 10.1677 12.5 10.1677C13.8086 10.1677 14.8633 9.11304 14.8633 7.80444C14.8633 6.49585 13.7891 5.44116 12.5 5.44116Z" fill="black"/>
</svg>
