<svg width="21" height="21" viewBox="0 0 21 21" fill="none" xmlns="http://www.w3.org/2000/svg">
<path d="M1.125 4.0922C1.125 13.0093 8.35374 20.238 17.2708 20.238C17.6731 20.238 18.072 20.2233 18.467 20.1944C18.9202 20.1612 19.1468 20.1446 19.3531 20.0258C19.524 19.9275 19.6859 19.7531 19.7716 19.5755C19.875 19.3612 19.875 19.1111 19.875 18.611V15.6763C19.875 15.2556 19.875 15.0453 19.8057 14.8651C19.7447 14.7058 19.6453 14.5641 19.5166 14.4522C19.3708 14.3255 19.1731 14.2537 18.7779 14.1099L15.4375 12.8952C14.9776 12.728 14.7476 12.6444 14.5295 12.6586C14.3371 12.6711 14.152 12.7368 13.9947 12.8482C13.8164 12.9746 13.6905 13.1844 13.4387 13.6041L12.5833 15.0297C9.82302 13.7796 7.58531 11.539 6.33333 8.7797L7.75899 7.92431C8.17859 7.67255 8.3884 7.54666 8.51479 7.36831C8.62625 7.21104 8.69198 7.02592 8.70448 6.83356C8.71865 6.6154 8.635 6.38546 8.46781 5.92559L7.25311 2.58513C7.10937 2.18987 7.03751 1.99223 6.91085 1.84647C6.79897 1.71771 6.65718 1.6184 6.49794 1.55726C6.31767 1.48804 6.10737 1.48804 5.68679 1.48804H2.75209C2.25196 1.48804 2.00189 1.48804 1.78748 1.59142C1.6099 1.67706 1.43556 1.83909 1.33719 2.00994C1.21842 2.21623 1.20182 2.44285 1.16864 2.89609C1.13972 3.29102 1.125 3.68989 1.125 4.0922Z" stroke="black" stroke-width="1.5" stroke-linecap="round" stroke-linejoin="round"/>
</svg>
