<svg width="86" height="86" viewBox="0 0 86 86" fill="none" xmlns="http://www.w3.org/2000/svg">
<g clip-path="url(#clip0_79_1242)">
<path d="M61.9739 63.9463V77.2332" stroke="black" stroke-width="6.80292" stroke-miterlimit="10" stroke-linecap="round" stroke-linejoin="round"/>
<path d="M27.4278 55.9742V26.7429C27.4278 22.2254 23.9731 18.7708 19.4556 18.7708H3.51123V48.0021H19.4556C23.9731 48.0021 27.4278 51.4567 27.4278 55.9742Z" stroke="black" stroke-width="6.80292" stroke-miterlimit="10" stroke-linecap="round" stroke-linejoin="round"/>
<path d="M27.4277 55.9742V26.7429C27.4277 22.2254 30.8823 18.7708 35.3999 18.7708H51.3443V48.0021H35.3999C30.8823 48.0021 27.4277 51.4567 27.4277 55.9742Z" stroke="black" stroke-width="6.80292" stroke-miterlimit="10" stroke-linecap="round" stroke-linejoin="round"/>
<path d="M33.2742 48.2676C34.0714 49.0648 34.6029 49.862 35.4001 50.6592V71.9184" stroke="black" stroke-width="6.80292" stroke-miterlimit="10" stroke-linecap="round" stroke-linejoin="round"/>
<path d="M59.3166 63.9461H69.9462C72.8693 63.9461 75.261 61.5545 75.261 58.6313V48.0018H83.2332L75.261 32.0574C75.261 18.7704 64.6314 8.14087 51.3445 8.14087C42.3093 8.14087 34.3372 13.1899 30.3511 20.6306" stroke="black" stroke-width="6.80292" stroke-miterlimit="10" stroke-linecap="round" stroke-linejoin="round"/>
</g>
<defs>
<clipPath id="clip0_79_1242">
<rect width="85.0365" height="85.0365" fill="white" transform="translate(0.854004 0.169189)"/>
</clipPath>
</defs>
</svg>
