<svg width="75" height="73" viewBox="0 0 75 73" fill="none" xmlns="http://www.w3.org/2000/svg">
<path d="M58.5892 16.321C61.9697 19.7919 64.4336 24.0493 65.7589 28.7097H74.8312V44.6594H65.7589C64.4352 49.3236 61.9713 53.5849 58.5892 57.0588L63.1333 64.9247L49.3255 72.8969L44.792 65.031C40.0912 66.2166 35.1695 66.2166 30.4687 65.031L25.9298 72.8969L12.122 64.9247L16.6662 57.0588C13.2841 53.5849 10.8201 49.3236 9.49653 44.6594H0.424194V28.715H9.49653C10.8201 24.0509 13.2841 19.7896 16.6662 16.3157L12.1167 8.45509L25.9192 0.48291H25.9352L30.474 8.33816C35.1748 7.15254 40.0965 7.15254 44.7973 8.33816L49.3202 0.48291H49.3308L63.1387 8.45509L58.5945 16.321H58.5892ZM53.572 36.6872C53.572 32.4585 51.8922 28.403 48.9021 25.4129C45.9119 22.4227 41.8564 20.7429 37.6277 20.7429C33.399 20.7429 29.3435 22.4227 26.3533 25.4129C23.3632 28.403 21.6833 32.4585 21.6833 36.6872C21.6833 40.9159 23.3632 44.9714 26.3533 47.9616C29.3435 50.9517 33.399 52.6316 37.6277 52.6316C41.8564 52.6316 45.9119 50.9517 48.9021 47.9616C51.8922 44.9714 53.572 40.9159 53.572 36.6872Z" fill="black"/>
</svg>
