<svg width="20" height="21" viewBox="0 0 20 21" fill="none" xmlns="http://www.w3.org/2000/svg">
<path fill-rule="evenodd" clip-rule="evenodd" d="M10 10.5C10 9.11931 11.1193 8 12.5 8C13.8807 8 15 9.11931 15 10.5C15 11.8807 13.8807 13 12.5 13C11.1193 13 10 11.8807 10 10.5Z" fill="#1ABCFE"/>
<path fill-rule="evenodd" clip-rule="evenodd" d="M5 15.5C5 14.1193 6.11929 13 7.5 13H10V15.5C10 16.8807 8.88069 18 7.5 18C6.11929 18 5 16.8807 5 15.5Z" fill="#0ACF83"/>
<path fill-rule="evenodd" clip-rule="evenodd" d="M10 3V8H12.5C13.8807 8 15 6.88069 15 5.5C15 4.11929 13.8807 3 12.5 3H10Z" fill="#FF7262"/>
<path fill-rule="evenodd" clip-rule="evenodd" d="M5 5.5C5 6.88069 6.11929 8 7.5 8H10V3H7.5C6.11929 3 5 4.11929 5 5.5Z" fill="#F24E1E"/>
<path fill-rule="evenodd" clip-rule="evenodd" d="M5 10.5C5 11.8807 6.11929 13 7.5 13H10V8H7.5C6.11929 8 5 9.11931 5 10.5Z" fill="#A259FF"/>
</svg>
