<svg width="25" height="24" viewBox="0 0 25 24" fill="none" xmlns="http://www.w3.org/2000/svg">
<path d="M13.8495 18.4841L11.3753 20.6349C10.2634 21.6014 8.8132 22.0867 7.34359 21.9839C5.87398 21.8811 4.50539 21.1988 3.53889 20.087C2.57238 18.9751 2.08714 17.5249 2.18991 16.0553C2.29267 14.5857 2.97503 13.2171 4.08686 12.2506L6.50653 10.1472M11.4489 5.85082L13.8686 3.74743C14.9804 2.78093 16.4307 2.29568 17.9003 2.39845C19.3699 2.50121 20.7385 3.18357 21.705 4.2954C22.6715 5.40724 23.1567 6.85747 23.054 8.32708C22.9512 9.79669 22.2688 11.1653 21.157 12.1318L18.6828 14.2826M8.82583 15.4911L16.5054 8.81535" stroke="#8941E8" stroke-width="3.70313" stroke-linecap="round" stroke-linejoin="round"/>
</svg>
