<svg width="16" height="15" viewBox="0 0 16 15" fill="none" xmlns="http://www.w3.org/2000/svg">
<path d="M14.9679 1.61625L11.8821 0.131719C11.5231 -0.0417182 11.0961 0.0314068 10.8153 0.312188L4.90481 5.70516L2.32902 3.75188C2.08996 3.56859 1.75293 3.58359 1.53074 3.78609L0.705743 4.53797C0.432462 4.78453 0.432462 5.21438 0.703399 5.46094L2.93746 7.49953L0.703399 9.53813C0.432462 9.78469 0.432462 10.2145 0.705743 10.4611L1.53074 11.213C1.75527 11.4155 2.08996 11.4305 2.32902 11.2472L4.90481 9.29156L10.8181 14.6869C11.0965 14.9677 11.5236 15.0408 11.8826 14.8673L14.9712 13.3805C15.2961 13.2244 15.5009 12.8972 15.5009 12.5358V2.46C15.5009 2.10094 15.2932 1.77141 14.9689 1.61531L14.9679 1.61625ZM11.7523 10.9059L7.26496 7.5L11.7523 4.09406V10.9059Z" fill="white"/>
</svg>
