<svg width="15" height="15" viewBox="0 0 15 15" fill="none" xmlns="http://www.w3.org/2000/svg">
<path d="M0.0151367 7.49962C0.0151367 10.4623 1.73662 13.023 4.23406 14.2361L0.663535 4.45359C0.248311 5.38415 0.0151367 6.41484 0.0151367 7.49962ZM12.5531 7.1221C12.5531 6.19667 12.2209 5.5563 11.9361 5.05814C11.5568 4.44117 11.2011 3.91925 11.2011 3.30267C11.2011 2.61442 11.7227 1.97408 12.4577 1.97408C12.4913 1.97408 12.5228 1.9781 12.5546 1.97991C11.2234 0.759902 9.44897 0.0146484 7.50011 0.0146484C4.88498 0.0146484 2.58456 1.35639 1.2461 3.38815C1.42191 3.39401 1.58747 3.39768 1.72783 3.39768C2.51073 3.39768 3.72307 3.30264 3.72307 3.30264C4.12619 3.27853 4.17409 3.87135 3.77094 3.91922C3.77094 3.91922 3.36523 3.96674 2.91421 3.99012L5.64005 12.0979L7.27783 7.18529L6.1119 3.99012C5.7084 3.96674 5.32681 3.91922 5.32681 3.91922C4.92365 3.89508 4.97082 3.2785 5.37433 3.30264C5.37433 3.30264 6.61007 3.39768 7.3458 3.39768C8.12832 3.39768 9.34068 3.30264 9.34068 3.30264C9.74419 3.27853 9.79171 3.87135 9.3882 3.91922C9.3882 3.91922 8.98215 3.96674 8.53186 3.99012L11.2369 12.0362L11.9836 9.54199C12.363 8.56907 12.5531 7.76241 12.5531 7.1221ZM7.63168 8.15423L5.38572 14.6805C6.05642 14.8775 6.76584 14.9854 7.50011 14.9854C8.37222 14.9854 9.20809 14.8348 9.98586 14.561C9.96611 14.5288 9.94748 14.4949 9.93251 14.4576L7.63168 8.15423ZM14.0684 3.90899C14.1006 4.14729 14.1189 4.40314 14.1189 4.67836C14.1189 5.43785 13.9763 6.29203 13.5498 7.35929L11.2636 13.9693C13.4888 12.6717 14.9851 10.2613 14.9851 7.49962C14.9851 6.19846 14.6525 4.97479 14.0684 3.90899Z" fill="white"/>
</svg>
