<?xml version="1.0" encoding="UTF-8"?>
<svg width="64px" height="64px" viewBox="0 0 24 24" fill="none" xmlns="http://www.w3.org/2000/svg">
<path d="M19 5.51903C19 4.11499 17.6983 3.04494 16.3204 3.31983L5.48223 5.65373C4.33108 5.88356 3.5 6.91245 3.5 8.09206V15.5C3.5 16.9041 4.80169 17.9742 6.17958 17.6993L17.0178 15.3654C18.1689 15.1355 19 14.1067 19 12.927V5.51903Z" stroke="#8B5CF6" stroke-width="1.5"/>
<path d="M8 8.5V12.5" stroke="#8B5CF6" stroke-width="1.5" stroke-linecap="round" stroke-linejoin="round"/>
<path d="M12 7.5V11.5" stroke="#8B5CF6" stroke-width="1.5" stroke-linecap="round" stroke-linejoin="round"/>
<path d="M16 6.5V10.5" stroke="#8B5CF6" stroke-width="1.5" stroke-linecap="round" stroke-linejoin="round"/>
<path d="M19 15V19C19 19.9428 18.5522 20.8609 17.7558 21.5336C16.9593 22.2062 15.876 22.5348 14.796 22.4464L6.61769 21.7464C5.69175 21.6708 4.82466 21.2813 4.17837 20.6541C3.53209 20.0269 3.1476 19.1908 3.09 18.3043L3 17" stroke="#8B5CF6" stroke-width="1.5" stroke-linecap="round" stroke-linejoin="round"/>
</svg>
